<svg xmlns="http://www.w3.org/2000/svg" xmlns:xlink="http://www.w3.org/1999/xlink" id="body_1" preserveAspectRatio="xMinYMin meet" viewBox="0 0 816 1056"><defs><clipPath id="1"><path d="M0 792L0 0L0 0L612 0L612 0L612 792L612 792L0 792z" /></clipPath></defs><g transform="matrix(1.333333 0 0 1.333333 0 0)"><g><g clip-path="url(#1)"><path transform="matrix(1 0 0 -1 0 792)" d="M319.766 720.854L348.685 720.854" stroke="#000000" stroke-width="0.398" fill="none" /><path transform="matrix(1 0 0 -1 0 792)" d="M369.953 720.854L402.954 720.854" stroke="#000000" stroke-width="0.398" fill="none" /><path transform="matrix(1 0 0 -1 0 792)" d="M36 686.024L576 686.024" stroke="#000000" stroke-width="0.398" fill="none" /><path transform="matrix(1 0 0 -1 0 792)" d="M36 585.591L576 585.591" stroke="#000000" stroke-width="0.398" fill="none" /><path transform="matrix(1 0 0 -1 0 792)" d="M36 454.075L576 454.075" stroke="#000000" stroke-width="0.398" fill="none" /><path transform="matrix(1 0 0 -1 0 792)" d="M36 352.175L576 352.175" stroke="#000000" stroke-width="0.398" fill="none" /></g></g></g></svg>